<svg id="Artwork" xmlns="http://www.w3.org/2000/svg" xmlns:xlink="http://www.w3.org/1999/xlink" width="1920" height="1080" viewBox="0 0 1920 1080">
  <defs>
    <clipPath id="clip-path">
      <rect id="Rectangle_3" data-name="Rectangle 3" width="1920" height="1080" fill="none"/>
    </clipPath>
    <clipPath id="clip-path-2">
      <rect id="Rectangle_2" data-name="Rectangle 2" width="1920.865" height="1079.109" fill="none"/>
    </clipPath>
  </defs>
  <g id="Composant_1_1" data-name="Composant 1 – 1">
    <g id="Groupe_45" data-name="Groupe 45" clip-path="url(#clip-path)">
      <path id="Tracé_541" data-name="Tracé 541" d="M0,0H1920V1080H0Z" fill="#fec72c"/>
      <path id="Tracé_515" data-name="Tracé 515" d="M789.39,761.36c-44.72,72.48-21.53,178.57,49.35,225.78,12.06,8.03,25.31,14.6,35.48,24.92s16.82,25.84,11.75,39.41c-5.89,15.76-24.26,22.36-40.61,26.34q-4.86,1.185-9.7,2.19H18V0H465.4c33.89,0,59.69,36.05,75.58,65.98s20.41,64.39,24.97,97.98,9.72,68.05,26.65,97.41c29.87,51.78,89.68,77.36,146.25,96.69s117.18,37.82,156.59,82.77C938.2,489.61,945.87,566,913.67,622.31,882.69,676.47,822.16,708.25,789.39,761.36Z" fill="#f5e5c9" style="mix-blend-mode: multiply;isolation: isolate"/>
      <path id="Tracé_516" data-name="Tracé 516" d="M771.39,761.36c-44.72,72.48-21.53,178.57,49.35,225.78,12.06,8.03,25.31,14.6,35.48,24.92s16.82,25.84,11.75,39.41c-5.89,15.76-24.26,22.36-40.61,26.34q-4.86,1.185-9.7,2.19H0V0H447.4c33.89,0,59.69,36.05,75.58,65.98s20.41,64.39,24.97,97.98,9.72,68.05,26.65,97.41c29.87,51.78,89.68,77.36,146.25,96.69s117.18,37.82,156.59,82.77C920.2,489.61,927.87,566,895.67,622.31,864.69,676.47,804.16,708.25,771.39,761.36Z" fill="#fff"/>
      <path id="Tracé_517" data-name="Tracé 517" d="M597.841,198.778a54.746,54.746,0,0,1,109.374,4.615c-.376,16.545-8.1,33.751-1.708,49.015,4.59,10.96,16.1,19.624,15.411,31.487-.516,8.9-8.424,16.066-17.071,18.214s-17.788.237-26.243-2.574C636.589,285.9,594.977,245.208,597.841,198.778Z" fill="#f5e5c9" style="mix-blend-mode: multiply;isolation: isolate"/>
      <path id="Tracé_518" data-name="Tracé 518" d="M588.841,198.778a54.746,54.746,0,0,1,109.374,4.615c-.376,16.545-8.1,33.751-1.708,49.015,4.59,10.96,16.1,19.624,15.411,31.487-.516,8.9-8.424,16.066-17.071,18.214s-17.788.237-26.243-2.574C627.589,285.9,585.977,245.208,588.841,198.778Z" fill="#fff"/>
      <path id="Tracé_540" data-name="Tracé 540" d="M0,0H447.4c33.89,0,59.69,36.05,75.58,65.98s20.41,64.39,24.97,97.98,9.72,68.05,26.65,97.41c29.87,51.78,89.68,77.36,146.25,96.69s117.18,37.82,156.59,82.77C920.2,489.61,927.87,566,895.67,622.31Z" transform="translate(1919.501 2096) rotate(-180)" fill="#fff"/>
    </g>
  </g>
</svg>
