<svg xmlns="http://www.w3.org/2000/svg" xmlns:xlink="http://www.w3.org/1999/xlink" width="1920" height="1080" viewBox="0 0 1920 1080">
  <defs>
    <clipPath id="clip-path">
      <rect id="Rectangle_3" data-name="Rectangle 3" width="1920" height="1080" transform="translate(-717 0)" fill="none"/>
    </clipPath>
    <clipPath id="clip-path-2">
      <rect id="Rectangle_2" data-name="Rectangle 2" width="1919.515" height="1079.109" fill="none"/>
    </clipPath>
  </defs>
  <g id="Artwork" transform="translate(1678.654 1080) rotate(180)">
    <g id="Composant_1_6" data-name="Composant 1 – 6" transform="translate(-241.346 0)">
      <g id="Groupe_45" data-name="Groupe 45" transform="translate(717 0)" clip-path="url(#clip-path)">
        <path id="Tracé_541" data-name="Tracé 541" d="M0,0H1198.507V1080H0Z" transform="translate(4.147)" fill="#fec72c"/>
        <path id="Tracé_515" data-name="Tracé 515" d="M833.479,761.36C786.2,833.84,810.719,939.93,885.65,987.14c12.749,8.03,26.757,14.6,37.508,24.92s17.781,25.84,12.422,39.41c-6.227,15.76-25.647,22.36-42.931,26.34q-5.138,1.185-10.254,2.19H18V0H490.971c35.827,0,63.1,36.05,79.9,65.98s21.577,64.39,26.4,97.98,10.276,68.05,28.173,97.41c31.577,51.78,94.806,77.36,154.609,96.69s123.878,37.82,165.54,82.77c45.2,48.78,53.312,125.17,19.272,181.48C932.112,676.47,868.122,708.25,833.479,761.36Z" transform="translate(-511.503)" fill="#f5e5c9" style="mix-blend-mode: multiply;isolation: isolate"/>
        <path id="Tracé_516" data-name="Tracé 516" d="M799.755,761.36c-46.364,72.48-22.322,178.57,51.165,225.78,12.5,8.03,26.241,14.6,36.785,24.92s17.438,25.84,12.182,39.41c-6.107,15.76-25.152,22.36-42.1,26.34q-5.039,1.185-10.057,2.19H0V0H463.851c35.136,0,61.885,36.05,78.359,65.98s21.161,64.39,25.888,97.98,10.077,68.05,27.63,97.41c30.968,51.78,92.978,77.36,151.628,96.69S868.845,395.88,909.7,440.83c44.332,48.78,52.284,125.17,18.9,181.48C896.485,676.47,833.73,708.25,799.755,761.36Z" transform="translate(-493.503)" fill="#fff"/>
        <path id="Tracé_517" data-name="Tracé 517" d="M597.846,198.778c1.2-18.837,13.295-36.684,30.7-45.315a59.748,59.748,0,0,1,56.071,2.281c16.586,10.014,27.074,28.78,26.629,47.649-.39,16.545-8.4,33.751-1.771,49.015,4.759,10.96,16.692,19.624,15.978,31.487-.535,8.9-8.734,16.066-17.7,18.214s-18.442.237-27.208-2.574C638.019,285.9,594.877,245.208,597.846,198.778Z" transform="translate(-471.525)" fill="#f5e5c9" style="mix-blend-mode: multiply;isolation: isolate"/>
        <path id="Tracé_518" data-name="Tracé 518" d="M588.846,198.778c1.2-18.837,13.295-36.684,30.7-45.315a59.748,59.748,0,0,1,56.071,2.281c16.586,10.014,27.074,28.78,26.629,47.649-.39,16.545-8.4,33.751-1.771,49.015,4.759,10.96,16.692,19.624,15.978,31.487-.535,8.9-8.734,16.066-17.7,18.214s-18.442.237-27.208-2.574C629.019,285.9,585.877,245.208,588.846,198.778Z" transform="translate(-471.856)" fill="#fff"/>
        <path id="Tracé_540" data-name="Tracé 540" d="M0,0H463.851c35.136,0,61.885,36.05,78.359,65.98s21.161,64.39,25.888,97.98,10.077,68.05,27.63,97.41c30.968,51.78,92.978,77.36,151.628,96.69S868.845,395.88,909.7,440.83c44.332,48.78,52.284,125.17,18.9,181.48Z" transform="translate(1496.58 2096) rotate(-180)" fill="#fff"/>
      </g>
    </g>
  </g>
</svg>
