<svg xmlns="http://www.w3.org/2000/svg" xmlns:xlink="http://www.w3.org/1999/xlink" width="1461" height="1080" viewBox="0 0 1461 1080">
  <defs>
    <clipPath id="clip-path">
      <rect id="Rectangle_3" data-name="Rectangle 3" width="1461" height="1080" transform="translate(0 0)" fill="none"/>
    </clipPath>
    <clipPath id="clip-path-2">
      <rect id="Rectangle_2" data-name="Rectangle 2" width="1461.894" height="1079.109" fill="none"/>
    </clipPath>
  </defs>
  <g id="Artwork" transform="translate(1683.648 1079) rotate(-180)">
    <g id="Composant_1_2" data-name="Composant 1 – 2" transform="translate(222.648 -1)">
      <g id="Groupe_45" data-name="Groupe 45" transform="translate(0 0)" clip-path="url(#clip-path)">
        <path id="Tracé_541" data-name="Tracé 541" d="M0,0H1461.235V1080H0Z" transform="translate(0)" fill="#fec72c"/>
        <path id="Tracé_515" data-name="Tracé 515" d="M605.074,761.36c-34.035,72.48-16.386,178.57,37.558,225.78,9.179,8.03,19.262,14.6,27,24.92s12.8,25.84,8.943,39.41c-4.483,15.76-18.463,22.36-30.907,26.34q-3.7,1.185-7.382,2.19H18V0H358.5c25.792,0,45.428,36.05,57.521,65.98s15.533,64.39,19,97.98,7.4,68.05,20.282,97.41c22.733,51.78,68.252,77.36,111.3,96.69s89.181,37.82,119.174,82.77c32.543,48.78,38.38,125.17,13.874,181.48C676.081,676.47,630.014,708.25,605.074,761.36Z" transform="translate(-4.301)" fill="#f5e5c9" style="mix-blend-mode: multiply;isolation: isolate"/>
        <path id="Tracé_516" data-name="Tracé 516" d="M587.074,761.36c-34.035,72.48-16.386,178.57,37.558,225.78,9.178,8.03,19.262,14.6,27,24.92s12.8,25.84,8.943,39.41c-4.483,15.76-18.463,22.36-30.907,26.34q-3.7,1.185-7.382,2.19H0V0H340.5c25.792,0,45.428,36.05,57.521,65.98s15.533,64.39,19,97.98,7.4,68.05,20.282,97.41c22.733,51.78,68.252,77.36,111.3,96.69s89.181,37.82,119.174,82.77c32.543,48.78,38.38,125.17,13.874,181.48C658.081,676.47,612.014,708.25,587.074,761.36Z" transform="translate(0)" fill="#fff"/>
        <path id="Tracé_517" data-name="Tracé 517" d="M597.807,198.778c.884-18.837,9.759-36.684,22.533-45.315s28.984-7.732,41.16,2.281,19.874,28.78,19.548,47.649c-.286,16.545-6.165,33.751-1.3,49.015,3.493,10.96,12.253,19.624,11.729,31.487-.393,8.9-6.411,16.066-12.992,18.214s-13.538.237-19.972-2.574C627.3,285.9,595.628,245.208,597.807,198.778Z" transform="translate(-142.814)" fill="#f5e5c9" style="mix-blend-mode: multiply;isolation: isolate"/>
        <path id="Tracé_518" data-name="Tracé 518" d="M588.808,198.778c.884-18.837,9.759-36.684,22.533-45.315s28.984-7.732,41.16,2.281,19.874,28.78,19.548,47.649c-.286,16.545-6.165,33.751-1.3,49.015,3.493,10.96,12.253,19.624,11.729,31.487-.393,8.9-6.411,16.066-12.992,18.214s-13.538.237-19.972-2.574C618.3,285.9,586.628,245.208,588.808,198.778Z" transform="translate(-140.664)" fill="#fff"/>
        <path id="Tracé_540" data-name="Tracé 540" d="M0,0H340.5c25.792,0,45.428,36.05,57.521,65.98s15.533,64.39,19,97.98,7.4,68.05,20.282,97.41c22.733,51.78,68.252,77.36,111.3,96.69s89.181,37.82,119.174,82.77c32.543,48.78,38.38,125.17,13.874,181.48Z" transform="translate(1460.856 2096) rotate(-180)" fill="#fff"/>
      </g>
    </g>
  </g>
</svg>
