<svg xmlns="http://www.w3.org/2000/svg" xmlns:xlink="http://www.w3.org/1999/xlink" width="2017" height="1080" viewBox="0 0 2017 1080">
  <defs>
    <clipPath id="clip-path">
      <rect id="Rectangle_3" data-name="Rectangle 3" width="2017" height="1080" fill="none"/>
    </clipPath>
    <clipPath id="clip-path-2">
      <rect id="Rectangle_2" data-name="Rectangle 2" width="1169.632" height="1079.109" fill="none"/>
    </clipPath>
  </defs>
  <g id="Artwork" transform="translate(790.263)">
    <g id="Composant_1_3" data-name="Composant 1 – 3" transform="translate(-790.263)">
      <g id="Groupe_45" data-name="Groupe 45" clip-path="url(#clip-path)">
        <path id="Tracé_541" data-name="Tracé 541" d="M0,0H1218.656V1080H0Z" transform="translate(798.604)" fill="#fec72c"/>
        <path id="Tracé_515" data-name="Tracé 515" d="M743.192,761.36c-42.042,72.48-20.241,178.57,46.394,225.78,11.338,8.03,23.794,14.6,33.355,24.92s15.813,25.84,11.046,39.41c-5.537,15.76-22.807,22.36-38.178,26.34q-4.569,1.185-9.119,2.19H18V0H438.605c31.86,0,56.115,36.05,71.054,65.98s19.188,64.39,23.475,97.98,9.138,68.05,25.054,97.41c28.081,51.78,84.309,77.36,137.491,96.69s110.162,37.82,147.212,82.77c40.2,48.78,47.41,125.17,17.138,181.48C830.9,676.47,774,708.25,743.192,761.36Z" transform="translate(797.526)" fill="#f5e5c9" style="mix-blend-mode: multiply;isolation: isolate"/>
        <path id="Tracé_516" data-name="Tracé 516" d="M725.192,761.36c-42.042,72.48-20.241,178.57,46.394,225.78,11.338,8.03,23.794,14.6,33.355,24.92s15.813,25.84,11.046,39.41c-5.537,15.76-22.807,22.36-38.178,26.34q-4.569,1.185-9.119,2.19H0V0H420.605c31.86,0,56.115,36.05,71.053,65.98s19.188,64.39,23.475,97.98,9.138,68.05,25.054,97.41c28.081,51.78,84.309,77.36,137.491,96.69s110.162,37.82,147.212,82.77c40.2,48.78,47.41,125.17,17.138,181.48C812.9,676.47,756,708.25,725.192,761.36Z" transform="translate(798.604)" fill="#fff"/>
        <path id="Tracé_517" data-name="Tracé 517" d="M597.833,198.778c1.092-18.837,12.055-36.684,27.834-45.315a49.773,49.773,0,0,1,50.843,2.281c15.04,10.014,24.55,28.78,24.147,47.649-.354,16.545-7.616,33.751-1.606,49.015,4.315,10.96,15.136,19.624,14.488,31.487-.485,8.9-7.919,16.066-16.049,18.214s-16.723.237-24.671-2.574C634.26,285.9,595.14,245.208,597.833,198.778Z" transform="translate(762.808 0)" fill="#f5e5c9" style="mix-blend-mode: multiply;isolation: isolate"/>
        <path id="Tracé_518" data-name="Tracé 518" d="M588.833,198.778c1.092-18.837,12.055-36.684,27.834-45.315a49.773,49.773,0,0,1,50.843,2.281c15.04,10.014,24.55,28.78,24.147,47.649-.354,16.545-7.616,33.751-1.606,49.015,4.315,10.96,15.136,19.624,14.488,31.487-.485,8.9-7.919,16.066-16.049,18.214s-16.723.237-24.671-2.574C625.26,285.9,586.14,245.208,588.833,198.778Z" transform="translate(763.347 0)" fill="#fff"/>
        <path id="Tracé_540" data-name="Tracé 540" d="M0,0H420.605c31.86,0,56.115,36.05,71.053,65.98s19.188,64.39,23.475,97.98,9.138,68.05,25.054,97.41c28.081,51.78,84.309,77.36,137.491,96.69s110.162,37.82,147.212,82.77c40.2,48.78,47.41,125.17,17.138,181.48Z" transform="translate(2603.146 2096) rotate(-180)" fill="#fff"/>
      </g>
    </g>
  </g>
</svg>
