<svg xmlns="http://www.w3.org/2000/svg" xmlns:xlink="http://www.w3.org/1999/xlink" width="1921" height="1079" viewBox="0 0 1921 1079">
  <defs>
    <clipPath id="clip-path">
      <rect id="Rectangle_3" data-name="Rectangle 3" width="1921" height="1079" transform="translate(1488)" fill="none"/>
    </clipPath>
    <clipPath id="clip-path-2">
      <rect id="Rectangle_2" data-name="Rectangle 2" width="1977.084" height="1078.11" fill="none"/>
    </clipPath>
  </defs>
  <g id="Artwork" transform="translate(721.094)">
    <g id="Composant_1_3" data-name="Composant 1 – 3" transform="translate(-721.094)">
      <g id="Groupe_45" data-name="Groupe 45" transform="translate(-1488)" clip-path="url(#clip-path)">
        <path id="Tracé_541" data-name="Tracé 541" d="M0,0H2059.951V1079H0Z" transform="translate(1349.918)" fill="#fec72c"/>
        <path id="Tracé_515" data-name="Tracé 515" d="M1243.825,760.655c-71.065,72.413-34.214,178.4,78.423,225.571,19.165,8.023,40.22,14.586,56.382,24.9s26.729,25.816,18.672,39.373c-9.36,15.745-38.552,22.339-64.534,26.316q-7.723,1.184-15.415,2.188H18V0H728.969c53.855,0,94.854,36.017,120.105,65.919s32.434,64.33,39.68,97.889S904.2,231.8,931.1,261.128c47.467,51.732,142.512,77.288,232.408,96.6s186.212,37.785,248.839,82.693c67.95,48.735,80.139,125.054,28.969,181.312C1392.089,675.844,1295.9,707.594,1243.825,760.655Z" transform="translate(1360.522)" fill="#f5e5c9" style="mix-blend-mode: multiply;isolation: isolate"/>
        <path id="Tracé_516" data-name="Tracé 516" d="M1225.825,760.655c-71.065,72.413-34.213,178.4,78.423,225.571,19.165,8.023,40.22,14.586,56.382,24.9s26.729,25.816,18.672,39.373c-9.36,15.745-38.552,22.339-64.534,26.316q-7.723,1.184-15.414,2.188H0V0H710.969c53.855,0,94.854,36.017,120.1,65.919s32.434,64.33,39.68,97.889S886.2,231.8,913.1,261.128c47.467,51.732,142.512,77.288,232.408,96.6s186.212,37.785,248.839,82.693c67.951,48.735,80.139,125.054,28.97,181.312C1374.089,675.844,1277.9,707.594,1225.825,760.655Z" transform="translate(1349.918)" fill="#fff"/>
        <path id="Tracé_517" data-name="Tracé 517" d="M597.924,198.731c1.847-18.82,20.377-36.65,47.049-45.273s60.52-7.725,85.943,2.279,41.5,28.753,40.816,47.6c-.6,16.53-12.874,33.72-2.714,48.97,7.294,10.95,25.585,19.606,24.49,31.458-.82,8.887-13.387,16.051-27.128,18.2s-28.267.237-41.7-2.572C659.5,285.77,593.372,245.118,597.924,198.731Z" transform="translate(1702.031 -0.137)" fill="#f5e5c9" style="mix-blend-mode: multiply;isolation: isolate"/>
        <path id="Tracé_518" data-name="Tracé 518" d="M588.923,198.731c1.846-18.82,20.377-36.65,47.049-45.273s60.52-7.725,85.942,2.279,41.5,28.753,40.816,47.6c-.6,16.53-12.873,33.72-2.714,48.97,7.294,10.95,25.585,19.606,24.49,31.458-.82,8.887-13.386,16.051-27.128,18.2s-28.267.237-41.7-2.572C650.5,285.77,584.372,245.118,588.923,198.731Z" transform="translate(1696.729 -0.137)" fill="#fff"/>
        <path id="Tracé_540" data-name="Tracé 540" d="M0,0H710.969c53.855,0,94.854,36.017,120.1,65.919s32.434,64.33,39.68,97.889S886.2,231.8,913.1,261.128c47.467,51.732,142.512,77.288,232.408,96.6s186.212,37.785,248.839,82.693c67.951,48.735,80.139,125.054,28.97,181.312Z" transform="translate(4400.221 2094.059) rotate(-180)" fill="#fff"/>
      </g>
    </g>
  </g>
</svg>
