<svg xmlns="http://www.w3.org/2000/svg" xmlns:xlink="http://www.w3.org/1999/xlink" width="1893" height="1080" viewBox="0 0 1893 1080">
  <defs>
    <clipPath id="clip-path">
      <rect id="Rectangle_3" data-name="Rectangle 3" width="1893" height="1080" transform="translate(0 0)" fill="none"/>
    </clipPath>
    <clipPath id="clip-path-2">
      <rect id="Rectangle_2" data-name="Rectangle 2" width="1894.232" height="1079.109" fill="none"/>
    </clipPath>
  </defs>
  <g id="Artwork" transform="translate(1893.379 1080) rotate(-180)">
    <g id="Composant_1_7" data-name="Composant 1 – 7" transform="translate(0.379 0)">
      <g id="Groupe_45" data-name="Groupe 45" clip-path="url(#clip-path)">
        <path id="Tracé_541" data-name="Tracé 541" d="M0,0H1893.379V1080H0Z" fill="#fec72c"/>
        <path id="Tracé_515" data-name="Tracé 515" d="M778.695,761.36c-44.1,72.48-21.232,178.57,48.666,225.78,11.893,8.03,24.959,14.6,34.988,24.92s16.587,25.84,11.587,39.41c-5.808,15.76-23.924,22.36-40.047,26.34q-4.793,1.185-9.565,2.19H18V0H459.2c33.42,0,58.862,36.05,74.532,65.98s20.127,64.39,24.624,97.98,9.585,68.05,26.28,97.41c29.456,51.78,88.437,77.36,144.222,96.69s115.555,37.82,154.419,82.77C925.441,489.61,933,566,901.251,622.31,870.7,676.47,811.01,708.25,778.695,761.36Z" transform="translate(-0.25)" fill="#f5e5c9" style="mix-blend-mode: multiply;isolation: isolate"/>
        <path id="Tracé_516" data-name="Tracé 516" d="M760.695,761.36c-44.1,72.48-21.232,178.57,48.666,225.78,11.893,8.03,24.959,14.6,34.988,24.92s16.587,25.84,11.587,39.41c-5.808,15.76-23.924,22.36-40.047,26.34q-4.793,1.185-9.565,2.19H0V0H441.2c33.42,0,58.862,36.05,74.532,65.98s20.127,64.39,24.624,97.98,9.585,68.05,26.28,97.41c29.456,51.78,88.437,77.36,144.222,96.69s115.555,37.82,154.419,82.77C907.441,489.61,915,566,883.251,622.31,852.7,676.47,793.01,708.25,760.695,761.36Z" fill="#fff"/>
        <path id="Tracé_517" data-name="Tracé 517" d="M597.839,198.778c1.146-18.837,12.645-36.684,29.2-45.315a54.4,54.4,0,0,1,53.332,2.281c15.776,10.014,25.752,28.78,25.329,47.649-.371,16.545-7.989,33.751-1.684,49.015,4.526,10.96,15.877,19.624,15.2,31.487-.509,8.9-8.307,16.066-16.834,18.214s-17.541.237-25.879-2.574C636.05,285.9,595.015,245.208,597.839,198.778Z" transform="translate(-8.287)" fill="#f5e5c9" style="mix-blend-mode: multiply;isolation: isolate"/>
        <path id="Tracé_518" data-name="Tracé 518" d="M588.839,198.778c1.146-18.837,12.645-36.684,29.2-45.315a54.4,54.4,0,0,1,53.332,2.281c15.776,10.014,25.752,28.78,25.329,47.649-.371,16.545-7.989,33.751-1.684,49.015,4.526,10.96,15.877,19.624,15.2,31.487-.509,8.9-8.307,16.066-16.834,18.214s-17.541.237-25.879-2.574C627.05,285.9,586.015,245.208,588.839,198.778Z" transform="translate(-8.162)" fill="#fff"/>
        <path id="Tracé_540" data-name="Tracé 540" d="M0,0H441.2c33.42,0,58.862,36.05,74.532,65.98s20.127,64.39,24.624,97.98,9.585,68.05,26.28,97.41c29.456,51.78,88.437,77.36,144.222,96.69s115.555,37.82,154.419,82.77C907.441,489.61,915,566,883.251,622.31Z" transform="translate(1892.887 2096) rotate(-180)" fill="#fff"/>
      </g>
    </g>
  </g>
</svg>
