<svg xmlns="http://www.w3.org/2000/svg" width="15.785" height="33.686" viewBox="0 0 15.785 33.686">
  <g id="Groupe_59" data-name="Groupe 59" transform="translate(-295.037 -926.088)">
    <path id="Tracé_535" data-name="Tracé 535" d="M305.631,943.02v11.219c0,1.555-.014,3.109.016,4.663.012.641-.228.877-.868.868-1.8-.026-3.6-.033-5.4,0-.717.015-.937-.247-.933-.951.023-4.959.013-9.918.013-14.877,0-.987,0-.977-.966-.949-.616.017-1.233,0-1.85,0-.422,0-.609-.194-.6-.64q.027-2.331,0-4.663c-.006-.476.164-.678.642-.664.616.017,1.233,0,1.85.005.95.006.933.008.948-.976.021-1.428-.013-2.864.126-4.282a6.015,6.015,0,0,1,6.028-5.561c1.774-.056,3.549-.069,5.322-.126.626-.02.885.194.867.855q-.059,2.144,0,4.292c.018.618-.247.76-.787.756-.936-.008-1.876-.019-2.808.053a1.561,1.561,0,0,0-1.608,1.665c-.046.86-.027,1.724-.064,2.586-.021.506.156.694.685.676,1.159-.039,2.319-.021,3.478-.016.982,0,1.025.032.945.987-.124,1.472-.3,2.94-.42,4.412-.041.519-.276.675-.753.67C308.236,943.011,306.983,943.02,305.631,943.02Z" fill="#fcd538"/>
  </g>
</svg>
