<svg xmlns="http://www.w3.org/2000/svg" width="32.94" height="31.04" viewBox="0 0 32.94 31.04">
  <g id="Groupe_62" data-name="Groupe 62" transform="translate(-181 -927.411)">
    <g id="Groupe_61" data-name="Groupe 61">
      <path id="Tracé_538" data-name="Tracé 538" d="M206.025,958.451H188.916A7.925,7.925,0,0,1,181,950.535V935.327a7.925,7.925,0,0,1,7.916-7.916h17.109a7.924,7.924,0,0,1,7.915,7.916v15.208A7.924,7.924,0,0,1,206.025,958.451Zm-17.109-28.04A4.921,4.921,0,0,0,184,935.327v15.208a4.921,4.921,0,0,0,4.916,4.916h17.109a4.921,4.921,0,0,0,4.915-4.916V935.327a4.921,4.921,0,0,0-4.915-4.916Z" fill="#fcd538"/>
      <path id="Tracé_539" data-name="Tracé 539" d="M197.946,950.876a7.935,7.935,0,1,1,7.935-7.935A7.945,7.945,0,0,1,197.946,950.876Zm0-12.87a4.935,4.935,0,1,0,4.935,4.935A4.94,4.94,0,0,0,197.946,938.006Z" fill="#fcd538"/>
      <circle id="Ellipse_9" data-name="Ellipse 9" cx="1.22" cy="1.22" r="1.22" transform="translate(204.497 933.036)" fill="#fcd538"/>
    </g>
  </g>
</svg>
