<svg xmlns="http://www.w3.org/2000/svg" width="33.626" height="27.476" viewBox="0 0 33.626 27.476">
  <g id="Groupe_58" data-name="Groupe 58" transform="translate(-508.331 -929.193)">
    <path id="Tracé_534" data-name="Tracé 534" d="M541.954,932.538a12.5,12.5,0,0,1-2.295,2.641,2.739,2.739,0,0,1-.5.413,1.122,1.122,0,0,0-.569,1.144,20.08,20.08,0,0,1-4.46,12.744,18.354,18.354,0,0,1-6.451,5.2,18.647,18.647,0,0,1-6.494,1.82,17.759,17.759,0,0,1-2.308.166,22,22,0,0,1-5.248-.749,20.076,20.076,0,0,1-5.19-2.293,1.328,1.328,0,0,1-.111-.1,14.112,14.112,0,0,0,10.189-2.87,6.935,6.935,0,0,1-4.613-1.893,6.685,6.685,0,0,1-1.842-2.919,7.112,7.112,0,0,0,3.05-.116,7.023,7.023,0,0,1-4.709-3.607,6.886,6.886,0,0,1-.78-3.268,7.552,7.552,0,0,0,3.1.855,7.014,7.014,0,0,1-2.872-4.221,6.876,6.876,0,0,1,.755-5.011,19.848,19.848,0,0,0,14.282,7.231,6.935,6.935,0,0,1,5.878-8.44,6.783,6.783,0,0,1,5.768,1.924.574.574,0,0,0,.437.123,12.772,12.772,0,0,0,3.512-1.274c.179-.1.359-.186.607-.314a5.815,5.815,0,0,1-1.141,2.137c-.513.582-1.1,1.1-1.71,1.7.81-.2,1.588-.376,2.358-.581.457-.123.9-.29,1.353-.436Z" fill="#fcd538"/>
  </g>
</svg>
